<svg xmlns="http://www.w3.org/2000/svg" width="256" height="256"><path fill-opacity=".016" d="M0 128.004v128.004l128.25-.254 128.25-.254.254-127.75L257.008 0H0v128.004m.485.496c0 70.4.119 99.053.265 63.672.146-35.38.146-92.98 0-128C.604 29.153.485 58.1.485 128.5" fill="#ffb300" fill-rule="evenodd"/><path fill-opacity=".083" d="M195.775 29.758c-8.172 4.742-12.354 12.63-15.393 29.037-1.288 6.951-1.779 20.29-2.436 66.205-.889 62.149-1.39 68.256-6.445 78.587-4.617 9.438-11.832 13.613-23.522 13.613-9.956 0-18.155-4.898-22.376-13.368L123 198.607V127h21c18.392 0 21-.194 21-1.566 0-1.925-1.912-5.675-3.4-6.669-.605-.404-9.537-.741-19.85-.75L123 118v-17.961c0-16.901-.123-18.075-2.079-19.898-4.103-3.822-13.006-3.146-17.479 1.326-4.358 4.358-4.58 7.635-4.183 61.854.406 55.471.499 56.47 6.147 66.109 4.859 8.291 15.135 15.088 26.393 17.455 10.955 2.305 25.566.961 33.564-3.086 4.964-2.512 11.54-9.312 14.298-14.783l2.16-4.287 2.161 4.235c3.438 6.739 9.423 12.49 16.271 15.633 5.604 2.572 7.328 2.869 16.747 2.885 12.642.022 17.347-1.734 24.907-9.294 8.915-8.914 14.063-22.529 14.063-37.188.001-9.285-1.414-12.5-5.5-12.5h-2.97l-.719 9.356c-1.3 16.909-4.719 26.243-12.318 33.628-11.637 11.31-27.868 5.845-31.388-10.57-.655-3.053-1.075-19.191-1.075-41.284v-36.271l6.342-5.082c10.933-8.762 19.509-21.998 23.179-35.777.879-3.3 1.845-11.175 2.147-17.5.898-18.814-2.993-30.176-12.177-35.558-3.529-2.068-5.455-2.441-12.579-2.434-7.347.007-9.01.356-13.137 2.75m11.379 8.556c-2.994 3.608-4.208 14.544-4.836 43.563l-.636 29.378 2.424-1.588c2.803-1.837 8.839-9.581 11.433-14.667 4.159-8.157 5.644-15.308 6.183-29.763.594-15.975-.392-21.635-4.486-25.728-2.775-2.775-8.233-3.422-10.082-1.195M21.951 121.311c-8.823 2.479-16.313 8.872-20.061 17.124-2.6 5.726-2.565 19.481.065 25.274 2.361 5.201 9.262 12.225 14.404 14.66 7.668 3.632 19.857 3.639 26.865.015 5.208-2.693 11.991-9.695 14.418-14.884 3.118-6.666 3.248-17.931.283-24.5-2.592-5.742-9.135-12.508-15.006-15.515-5.721-2.931-14.89-3.882-20.968-2.174" fill="#ffb300" fill-rule="evenodd"/><path fill-opacity=".365" d="M199.46 28.064c-5.038 1.465-10.9 7.296-13.775 13.703-5.631 12.548-5.858 15.116-6.693 75.733-.424 30.8-1.248 60.05-1.831 65-2.142 18.183-6.947 27.683-16.593 32.805-3.191 1.695-5.792 2.16-12.068 2.16-9.041 0-13.639-1.826-19.199-7.627-6.686-6.975-6.768-7.52-7.109-47.068l-.307-35.73 21.307-.27 21.308-.27-.31-2.5c-.171-1.375-1.233-3.287-2.361-4.25-1.796-1.533-4.398-1.75-20.94-1.75H122V99.622c0-20.849.068-20.661-7.783-21.314-5.687-.473-8.849 1.022-11.976 5.663l-2.32 3.442.29 55.043.289 55.044 2.406 5.975c2.984 7.41 10.534 15.615 17.508 19.027 12.034 5.888 29.137 6.877 41.183 2.382 6.547-2.444 15.986-11.048 18.332-16.713 1.549-3.738 2.67-4.022 3.641-.921 3.868 12.356 20.892 21.724 37.185 20.463 16.151-1.249 29.669-15.068 33.798-34.55 2.556-12.059 1.169-24.213-2.851-24.983-3.428-.658-4.701 1.688-4.719 8.692-.021 7.809-2.086 18.312-4.813 24.477-2.531 5.721-8.504 12.27-13.528 14.834-8.309 4.238-19.326.233-23.591-8.578-3.409-7.042-4.009-14.592-4.031-50.719l-.02-33.614 4.09-2.834c6.534-4.528 16.324-15.794 20.299-23.36 5.576-10.609 7.76-20.304 7.905-35.078.187-18.999-3.792-28.596-13.723-33.107-4.387-1.993-14.653-2.416-20.111-.829m8.852 8.944c-2.697 1.087-4.016 5.482-5.249 17.492-1.289 12.544-2.309 57.5-1.305 57.5 1.606 0 9.166-8.578 12.576-14.267 5.654-9.435 8.028-19.901 8.102-35.733.056-11.896-.198-14.068-2.145-18.284-1.644-3.561-3.105-5.158-5.718-6.25-1.93-.806-3.636-1.437-3.791-1.403-.155.035-1.266.46-2.47.945M20.994 121.934c-4.698 1.429-8.489 3.9-12.635 8.236C1.596 137.241.5 140.149.503 151c.003 11.394 1.652 15.257 9.544 22.353 14.431 12.974 36.865 8.874 46.485-8.494C59.17 160.096 59.5 158.554 59.5 151c0-7.553-.331-9.097-2.966-13.855-3.693-6.667-10.214-12.507-16.268-14.57-4.792-1.633-14.906-1.969-19.272-.641" fill="#ffb300" fill-rule="evenodd"/><path fill-opacity=".186" d="M201.513 28.076c-12.887 3.205-19.154 15.374-21.461 41.672-.567 6.464-1.036 30.29-1.042 52.948-.005 22.657-.474 46.957-1.04 54-1.246 15.487-4.482 27.092-9.114 32.683-9.679 11.682-31.138 11.567-40.886-.219-5.573-6.738-5.97-9.951-5.97-48.342V126h21c20.074 0 21-.085 21-1.929 0-4.649-1.877-5.071-22.55-5.071h-19.407l-.271-19.246-.272-19.247-3.888-1.273c-2.17-.71-5.392-.991-7.292-.634-4.261.799-8.846 5.282-9.683 9.465-.35 1.752-.629 25.291-.62 52.31.019 53.63.392 58.093 5.655 67.764 9.567 17.577 38.458 24.817 59.042 14.796 6.5-3.164 10.619-7.317 14.484-14.601 1.264-2.384 2.531-4.334 2.814-4.334.284 0 1.596 2.274 2.916 5.054 5.35 11.269 17.631 18.032 33.085 18.219 12.124.147 21.814-5.275 28.718-16.066 8.295-12.967 11.662-34.796 6.374-41.326-3.272-4.041-4.63-1.604-5.837 10.477-.621 6.213-2.013 13.812-3.094 16.887-4.531 12.892-13.22 20.755-22.936 20.755-9.208 0-15.185-4.852-18.267-14.83-1.818-5.884-1.966-9.272-1.901-43.525l.07-37.145 6.124-4.5c10.31-7.576 19.525-21.307 23.262-34.664 2.544-9.094 3.126-30.559 1.027-37.903-2.264-7.921-5.708-12.961-10.542-15.427-4.721-2.409-13.915-3.319-19.498-1.93m5.555 9.674c-3.594 2.92-5.029 14.427-5.737 46-.453 20.201-.321 28.25.462 28.25 2.216 0 10.965-10.115 14.027-16.216 5.358-10.676 6.68-17.461 6.68-34.284 0-13.962-.165-15.287-2.376-19.147-3.527-6.155-8.84-8.029-13.056-4.603M21.365 122.029c-1.725.533-5.325 2.432-8 4.22-18.685 12.487-16.931 41.477 3.103 51.279 7.11 3.479 17.953 3.703 25.167.522 23.191-10.228 23.575-43.056.635-54.161-5.056-2.448-15.884-3.411-20.905-1.86" fill="#ffb300" fill-rule="evenodd"/></svg>