<svg xmlns="http://www.w3.org/2000/svg" width="256" height="256"><path fill-opacity=".016" d="M0 128.004v128.004l128.25-.254 128.25-.254.254-127.75L257.008 0H0v128.004m.485.496c0 70.4.119 99.053.265 63.672.146-35.38.146-92.98 0-128C.604 29.153.485 58.1.485 128.5" fill="#ccc" fill-rule="evenodd"/><path fill-opacity=".111" d="M197 28.917c0 .504.563 1.126 1.25 1.383.792.296.517.745-.75 1.227-2.786 1.058-9.5 7.59-9.5 9.243 0 .881-.667 1.153-1.88.768-1.693-.537-1.831-.156-1.385 3.802.302 2.676.059 4.669-.62 5.089-.613.379-1.115.137-1.115-.537s-.297-.928-.66-.565c-.363.363-.562 3.702-.441 7.42.121 3.717-.229 7.883-.777 9.256l-.995 2.497-.064-2.917c-.034-1.604-.335-2.645-.666-2.313-.332.332-.578 27.295-.546 59.917.033 32.622-.339 60.213-.826 61.313-.741 1.675-.912 1.432-1.054-1.5-.157-3.224-.232-3.303-.949-1-.429 1.375-.549 5.044-.268 8.154.281 3.11.175 6.935-.236 8.5-.682 2.597-.819 2.671-1.562.846-.863-2.116-.998-1.7-1.298 4-.115 2.183-.632 2.963-1.897 2.863-.957-.075-1.495.258-1.196.742.299.484.083 1.67-.48 2.637-.629 1.08-1.036 1.253-1.055.449-.016-.72-.46-1.043-.986-.718-.526.325-.703 1.252-.393 2.059.405 1.056-.159 1.468-2.013 1.468-1.981 0-2.429.38-1.943 1.649.545 1.419.019 1.579-3.785 1.15-2.43-.274-5.316-.147-6.414.281-1.692.661-1.729.79-.246.85.963.038 1.75.52 1.75 1.07s-2.25 1-5 1-5-.45-5-1 .563-1.007 1.25-1.015c.906-.011.871-.256-.127-.888-.758-.48-3.104-.641-5.215-.358-3.61.484-4.157.181-9.259-5.129l-5.423-5.643-.152-37.189c-.083-20.454-.359-37.397-.613-37.65-.254-.254-.475 14.126-.491 31.955-.021 21.749-.355 31.862-1.015 30.73-.604-1.036-.882-13.77-.719-33l.264-31.313 21.151-.27c23.065-.294 24.197-.611 20.221-5.666L161.855 120h-17.362c-9.55 0-18.517-.439-19.928-.975L122 118.05v-17.918c0-16.031-.181-17.988-1.722-18.579-1.475-.566-1.511-.794-.25-1.591.81-.512 1.247-.959.972-.993-3.435-.424-14.133-.169-14.651.349-.375.375-.092.682.63.682s.01 1.225-1.583 2.722c-1.593 1.497-3.346 2.628-3.896 2.513-1.04-.216-1.071 115.527-.032 116.567.293.292.532-.02.532-.694 0-.674.481-.929 1.069-.565.588.363.944 2.527.791 4.809-.23 3.445.012 4.098 1.431 3.854.94-.161 1.709.291 1.709 1.005C107 212.02 117.691 222 119.629 222c.914 0 1.367.567 1.071 1.34-.373.97.608 1.383 3.559 1.499 4.667.183 5.821.867 3.712 2.2-.938.593 5.238.925 17.029.915 14.604-.012 18.079-.261 16.5-1.185-1.851-1.083-1.74-1.224 1.489-1.892 2.107-.436 3.741-.314 4.125.307.427.692.861.666 1.32-.077.376-.609.406-1.557.066-2.107-.34-.55-.16-1 .401-1 1.373 0 9.099-7.642 9.099-9.001 0-1.753 4.263-6.999 5.688-6.999.743 0 1.312 1.117 1.312 2.574 0 1.801 1.794 4.396 5.973 8.64 3.284 3.336 5.786 6.367 5.559 6.734-.227.367 1.46.778 3.748.914 4.789.282 5.771.862 3.691 2.177-.946.599 3.777.936 13.248.946 13.189.013 14.653-.154 14.094-1.613-.523-1.362-.029-1.558 3.035-1.2 3.163.369 3.582.183 3.088-1.372-.314-.99-.09-1.8.499-1.8 1.241 0 9.065-8.071 9.065-9.352 0-.474.661-.608 1.468-.299.807.31 1.71.172 2.006-.307.296-.479.097-1.022-.442-1.207-1.768-.604.064-4.939 1.848-4.373 1.378.437 1.577-.184 1.276-3.972-.335-4.204.996-6.179 2.182-3.24.277.688.508-6.175.513-15.25.005-9.075-.298-15.729-.672-14.787-.451 1.139-1.136 1.431-2.04.873-.748-.462-2.211-.619-3.25-.347-1.658.434-1.901 1.551-1.989 9.128-.055 4.748-.46 9.758-.9 11.133l-.801 2.5-.135-2.5-.135-2.5-1.382 2.497c-.964 1.742-1.07 2.873-.351 3.739.598.72.74 2.793.338 4.934-.512 2.731-.928 3.319-1.598 2.261-.839-1.326-1.378-.574-1.02 1.423.374 2.088-1.197 4.752-2.506 4.25-.976-.375-1.41.21-1.41 1.896 0 1.868-.391 2.287-1.674 1.795-1.285-.493-1.519-.239-1.007 1.093.526 1.371.195 1.67-1.577 1.424-1.61-.224-2.167.147-1.976 1.317.284 1.741-3.386 3.296-4.297 1.821-.293-.475-1.205-.605-2.027-.29-1.149.442-1.229.892-.345 1.957.947 1.14.404 1.383-3.097 1.383s-4.044-.243-3.097-1.383c.884-1.065.804-1.515-.345-1.957-.822-.315-1.734-.185-2.027.29-.607.982-4.412.245-6.281-1.217-.687-.538-1.25-1.823-1.25-2.855 0-1.033-.562-1.766-1.25-1.628-.789.158-1.25-.916-1.25-2.913 0-1.74-.338-3.503-.75-3.917-.412-.414-.75-.202-.75.472 0 .674-.45.948-1 .608-.64-.396-1-15.165-1-41.024 0-39.52.044-40.429 2.021-41.487 1.111-.595 2.43-.828 2.931-.519.5.309 1.192.105 1.538-.454.345-.559.039-1.023-.681-1.031-1.006-.012-.983-.222.1-.908.775-.49 2.087-.632 2.914-.315.997.383 1.255.173.764-.621-1.001-1.619 3.4-6.083 5.285-5.36 1.042.4 1.295.095.859-1.039-.372-.971.646-3.324 2.577-5.952 5.063-6.894 5.711-8.005 7.308-12.54.415-1.178.77-1.34 1.086-.494 1.014 2.717 2.029.037 1.56-4.121-.272-2.418-.006-5.237.591-6.265 1.054-1.815 1.087-1.814 1.117.047.016 1.054.319 1.628.672 1.275.772-.773.679-38.705-.098-39.481-.299-.299-.544.007-.544.681s-.481.929-1.068.566c-.587-.363-.947-2.302-.799-4.309.188-2.553-.117-3.565-1.016-3.371-.707.153-2.206-.893-3.332-2.325-1.126-1.431-3.226-3.072-4.666-3.647-1.499-.598-2.085-1.243-1.369-1.509 3.915-1.453-.216-2.297-11.25-2.297-6.909 0-12.5.41-12.5.917m13 9.944c0 .474 1.125.647 2.5.384s2.5-.088 2.5.388c0 .477-1.913.888-4.25.913l-4.25.046v6.618c0 3.64-.338 6.956-.75 7.37-.412.415-.75-.248-.75-1.472 0-1.229-.448-1.949-1-1.608-.629.388-1 11.136-1 28.937 0 22.47.277 28.548 1.342 29.432 1.585 1.315 2.658.507 2.658-2.004 0-1.191.509-1.607 1.5-1.227.95.365 1.5-.013 1.5-1.031 0-.884.675-1.607 1.5-1.607s1.5-.653 1.5-1.45c0-.798.695-1.84 1.545-2.315.865-.484 1.647-2.461 1.777-4.494.128-1.996.581-3.978 1.008-4.404.427-.427.461.11.076 1.193-.584 1.644-.471 1.757.685.682.81-.753 1.39-3.311 1.397-6.165.011-4.59 1.431-8.594 1.582-4.464.067 1.832.109 1.828.93-.083 1.191-2.773 1.191-34.656 0-36.5-.804-1.244-.975-1.159-1 .5-.023 1.51-.242 1.667-.893.639-.474-.748-.655-2.153-.401-3.122.299-1.142-.59-2.51-2.527-3.89-3.001-2.136-7.179-2.873-7.179-1.266M124.413 100.5c.001 9.9.151 13.815.333 8.699.182-5.115.181-13.215-.002-18-.183-4.784-.332-.599-.331 9.301M227 99.059c0 .582.45.781 1 .441s1-.816 1-1.059-.45-.441-1-.441-1 .477-1 1.059m-7 10c0 .582.45.781 1 .441s1-.816 1-1.059-.45-.441-1-.441-1 .477-1 1.059M16.658 123.235c-.727.461-.413.77.842.831 1.6.077 1.421.352-.894 1.374C13.52 126.803 7 132.708 7 134.14c0 .473-.675.86-1.5.86-1 0-1.5 1-1.5 3 0 1.65-.45 3-1 3s-1-.45-1-1-.45-1-1-1c-.615 0-1 5-1 13s.385 13 1 13c.55 0 1-.45 1-1s.45-1 1-1 1.01 1.012 1.023 2.25c.026 2.591 9.81 12.75 12.279 12.75.869 0 1.858.45 2.198 1 .34.55.066 1-.608 1-.674 0-.981.244-.683.542.298.298 6.443.636 13.655.75 12.087.192 13.07.071 12.558-1.542-.306-.963-.058-1.75.551-1.75.609 0 2.397-.953 3.972-2.118 1.576-1.165 3.327-1.832 3.891-1.483a1.205 1.205 0 001.654-.383c.345-.559.073-1.016-.605-1.016-.743 0-.429-.894.792-2.25 1.114-1.238 2.321-3.084 2.682-4.104.362-1.019 1.22-1.638 1.907-1.374.962.369 1.249-2.715 1.249-13.41 0-10.433-.3-13.775-1.206-13.427-.664.255-1.464-.349-1.779-1.34-.72-2.269-9.201-10.256-12.53-11.8-2.072-.961-2.172-1.171-.583-1.227 1.054-.038 1.641-.343 1.305-.679-.885-.885-26.69-1.027-28.064-.154M61.141 152c0 5.067.278 6.851.859 5.5.473-1.1.859-3.575.859-5.5 0-1.925-.386-4.4-.859-5.5-.581-1.351-.859.433-.859 5.5M55 171.059c0 .582.45.781 1 .441s1-.816 1-1.059-.45-.441-1-.441-1 .477-1 1.059M191.5 221c.34.55.816 1 1.059 1s.441-.45.441-1-.477-1-1.059-1-.781.45-.441 1" fill="#ccc" fill-rule="evenodd"/><path fill-opacity=".13" d="M200.71 30c-.287 1.1-1.357 2-2.377 2-3.867 0-11.406 9.424-12.82 16.027-.409 1.91-1.102 3.923-1.54 4.473-2.098 2.636-3.261 25.18-3.998 77.5-.665 47.203-1.05 57.158-2.342 60.5-.85 2.2-1.565 5.407-1.589 7.128-.024 1.72-.719 3.687-1.544 4.372-.825.685-1.5 2.002-1.5 2.927 0 2.964-9.811 12.073-13.003 12.073-.879 0-2.159.563-2.847 1.25-.766.766-4.007 1.25-8.367 1.25-4.804 0-7.252-.406-7.533-1.25-.229-.687-1.435-1.25-2.68-1.25-1.401 0-4.413-2.116-7.914-5.562-4.378-4.309-5.795-6.456-6.286-9.523-.348-2.177-1.024-4.201-1.501-4.496-.478-.295-.869-15.983-.869-34.861v-34.325l2.25-.603c1.237-.331 10.912-.609 21.5-.616 20.528-.015 21.131-.18 17.324-4.742-1.789-2.144-2.587-2.238-21.217-2.5L122.5 119.5l-.269-18c-.259-17.279-.359-18.069-2.5-19.728-4.687-3.63-13.012-1.29-16.712 4.697-2.056 3.328-2.082 4.135-1.803 56.904.219 41.179.572 53.817 1.534 54.778.688.687 1.25 2.27 1.25 3.518 0 1.248.92 4.035 2.045 6.193 2.234 4.285 11.249 13.138 13.379 13.138.732 0 1.851.626 2.486 1.391.635.765 3.154 1.691 5.599 2.058 5.248.787 6.665 2.243 2.758 2.833-1.522.23 4.306.486 12.952.568 13.107.125 15.629-.083 15.181-1.25-.384-1.001.607-1.594 3.474-2.079 2.206-.372 4.542-1.317 5.191-2.099.649-.782 1.567-1.422 2.039-1.422 1.086 0 7.896-6.566 7.896-7.613 0-1.587 5.316-8.387 6.557-8.387.706 0 1.605 1.463 1.998 3.25 1.105 5.031 11.913 15.13 17.521 16.373 2.522.558 4.316 1.495 4.174 2.178-.183.877 2.833 1.199 11.219 1.199 9.439 0 11.373-.249 10.929-1.405-.368-.959.488-1.631 2.698-2.116 1.78-.391 3.851-1.221 4.601-1.845 4.984-4.142 10.096-9.865 11.804-13.214 1.099-2.156 2.325-4.066 2.725-4.245.399-.179 1.022-2.566 1.386-5.305.481-3.625 1.031-4.837 2.024-4.456 1.101.422 1.364-1.599 1.364-10.487 0-9.453-.27-11.3-1.909-13.06-1.05-1.127-2.737-1.891-3.75-1.697-1.621.309-1.901 1.691-2.341 11.545-.313 7.005-.968 11.66-1.75 12.44-.688.685-1.25 2.334-1.25 3.664 0 3.346-6.316 13.433-10.251 16.371-4.258 3.18-10.01 5.81-12.705 5.81-2.971 0-11.132-3.801-13.485-6.281-1.068-1.125-2.857-3.659-3.977-5.632-1.939-3.417-2.051-5.513-2.36-44.201l-.324-40.613 6.112-4.543c5.907-4.389 16.99-17.701 16.99-20.406 0-.728.441-1.324.981-1.324.539 0 1.277-1.237 1.638-2.75s1.065-3.271 1.565-3.907c.499-.637 1.305-3.337 1.791-6 .486-2.664 1.406-6.868 2.045-9.343 1.385-5.368.838-24.597-.783-27.5-.614-1.1-1.352-3.137-1.64-4.527-.736-3.557-7.339-10.973-9.769-10.973-1.174 0-2.233-.834-2.538-2-.47-1.797-1.364-2-8.79-2-7.426 0-8.32.203-8.79 2m7.601 8.772c-1.205.951-2.504 3.078-2.888 4.728-.384 1.65-1.16 3.584-1.723 4.298-.623.789-1.209 13.145-1.495 31.517-.423 27.1-.303 30.359 1.162 31.574 1.358 1.128 1.902 1.133 3.232.029C209.406 108.589 217 98.206 217 96.698c0-.799.675-2.013 1.5-2.698s1.5-2.331 1.5-3.658.622-3.409 1.382-4.627c1.768-2.835 2.813-19.663 1.963-31.633-.638-8.993-.718-9.22-4.615-13.117-4.306-4.305-7.019-4.876-10.419-2.193M20 124.5c-.685.825-2.053 1.5-3.041 1.5-2.58 0-11.465 9.3-12.609 13.198-.668 2.276-1.495 3.211-2.66 3.008-1.488-.259-1.69.833-1.69 9.134 0 8.347.213 9.482 1.859 9.913 1.022.267 2.168 1.718 2.546 3.224.975 3.884 8.288 11.349 13.595 13.878 6.075 2.896 18.684 3.015 24.494.232C46.959 176.449 56 168.329 56 166.457c0-.667.675-1.772 1.5-2.457 1.163-.965 1.5-3.66 1.5-12s-.337-11.035-1.5-12c-.825-.685-1.5-1.778-1.5-2.429C56 135.887 45.516 126 43.73 126c-.817 0-2.045-.675-2.73-1.5-.942-1.136-3.493-1.5-10.5-1.5s-9.558.364-10.5 1.5m104.079 69.083c.048 1.165.285 1.402.604.605.289-.722.253-1.585-.079-1.917-.332-.332-.568.258-.525 1.312" fill="#ccc" fill-rule="evenodd"/><path fill-opacity=".103" d="M203.728 29.934c-.336 1.284-1.751 2.167-4.213 2.629-3.781.709-10.515 6.332-10.515 8.779 0 .702-.661 2.149-1.468 3.217-.808 1.067-1.483 2.998-1.5 4.29-.018 1.292-.656 3.767-1.418 5.5-2.13 4.84-3.65 35.968-3.647 74.651.003 34.831-1.216 62.362-2.852 64.395-.489.608-1.204 3.017-1.59 5.355-.385 2.338-1.103 4.25-1.594 4.25-.491 0-1.185 1.238-1.542 2.75-.754 3.199-8.941 11.25-11.44 11.25-.937 0-2.264.675-2.949 1.5-1.726 2.08-16.681 2.056-19.441-.032-1.068-.807-2.569-1.468-3.337-1.468-2.056 0-12.222-10.953-12.222-13.169 0-1.046-.681-2.941-1.513-4.211-1.291-1.97-1.475-7.428-1.25-37.215l.263-34.905 21.25-.27c12.856-.163 21.25-.652 21.25-1.238 0-.533-.775-1.874-1.722-2.981-1.602-1.87-2.927-2.011-18.935-2.011-9.467 0-18.357-.435-19.755-.967l-2.543-.966-.272-18.247-.273-18.247-3.191-.914c-2.167-.621-4.574-.505-7.5.361-7.98 2.363-7.809 1.045-7.809 60.193 0 43.79.225 51.99 1.494 54.423.821 1.575 1.496 4.327 1.5 6.114.003 1.787.412 3.25.908 3.25.496 0 1.376 1.237 1.954 2.75.578 1.512 1.635 3.432 2.348 4.265 2.408 2.816 9.573 7.985 11.067 7.985.816 0 2.044.675 2.729 1.5.692.834 2.872 1.5 4.911 1.5 2.016 0 5.431.9 7.589 2 5.049 2.574 11.951 2.574 17 0 2.158-1.1 5.58-2 7.604-2 2.35 0 3.89-.543 4.258-1.5.316-.825 1.409-1.5 2.429-1.5 1.654 0 7.885-6.295 9.23-9.326 1.683-3.792 5.375-8.674 6.559-8.674.76 0 1.653 1.238 1.984 2.75.743 3.389 1.089 4.247 2.68 6.641 2.042 3.075 7.739 8.609 8.861 8.609.571 0 1.713.675 2.538 1.5.825.825 2.751 1.5 4.279 1.5 3.499 0 9.078 1.904 9.078 3.098 0 .496 2.475.902 5.5.902s5.5-.378 5.5-.839c0-1.184 4.645-3.161 7.425-3.161 1.281 0 2.89-.675 3.575-1.5s1.693-1.5 2.24-1.5c1.649 0 8.76-7.642 8.76-9.414 0-.907.675-1.908 1.5-2.224.825-.317 1.5-1.373 1.5-2.347 0-.973.675-2.33 1.5-3.015s1.503-2.652 1.506-4.372c.007-4.179 1.852-10.628 3.041-10.628.524 0 .953-3.15.953-7 0-4.113-.423-7-1.025-7-.563 0-1.471-1.174-2.016-2.609-.77-2.023-1.291-2.36-2.325-1.502-.879.729-1.563 4.896-2.008 12.225-.439 7.217-1.193 11.858-2.151 13.225-.811 1.158-1.475 3.076-1.475 4.261s-.675 2.715-1.5 3.4-1.5 1.771-1.5 2.414c0 1.862-8.356 10.586-10.139 10.586-.889 0-2.176.675-2.861 1.5-1.398 1.685-14 2.196-14 .567 0-.513-1.013-1.247-2.25-1.631-2.536-.788-7.75-6.166-7.75-7.994 0-.658-.633-1.722-1.407-2.364-2.184-1.814-2.688-8.973-3.219-45.775-.39-27.037-.219-34.703.817-36.609.72-1.326 3.784-4.414 6.809-6.862 6.483-5.247 15.952-16.572 15.98-19.113.011-.98.695-2.041 1.52-2.357.825-.317 1.5-1.567 1.5-2.778s.661-3.075 1.468-4.143c.808-1.067 1.483-3.388 1.5-5.156.018-1.768.735-5.287 1.595-7.819 2.796-8.236.626-32.295-3.272-36.287-.71-.727-1.291-1.74-1.291-2.25 0-1.915-3.856-4.679-7.474-5.358-2.499-.469-3.916-1.348-4.254-2.637-.419-1.603-1.406-1.934-5.772-1.934-4.366 0-5.353.331-5.772 1.934m2.843 8.637c-.864.865-1.571 2.146-1.571 2.847 0 .701-.626 2.581-1.391 4.178-1.264 2.638-1.933 16.805-3.017 63.904-.079 3.454.224 4.045 2.225 4.328 1.717.244 3.46-.922 6.728-4.5 2.426-2.655 4.421-5.405 4.433-6.109.012-.705.697-1.541 1.522-1.857.825-.317 1.5-1.396 1.5-2.398 0-1.001.675-2.496 1.5-3.321.825-.825 1.5-2.237 1.5-3.137 0-.901.558-2.62 1.24-3.822.683-1.201 1.767-5.559 2.411-9.684a1246.66 1246.66 0 011.907-11.869c.495-2.932.133-7.44-1.1-13.71-1.494-7.6-2.423-10.001-4.986-12.881-2.635-2.963-3.815-3.54-7.239-3.54-2.385 0-4.745.655-5.662 1.571M21.5 125c-2.2 1.063-4.45 1.95-5 1.971-1.343.052-8.5 6.679-8.5 7.871 0 .519-.611 1.179-1.358 1.465-.748.287-1.653 2.36-2.012 4.606-.396 2.478-1.435 4.573-2.642 5.326-3.042 1.9-2.747 8.911.512 12.17 1.532 1.532 2.5 3.638 2.5 5.439 0 1.689.638 3.183 1.5 3.514.825.316 1.5 1.039 1.5 1.607 0 1.265 3.663 5.031 4.893 5.031.491 0 1.152.675 1.469 1.5.316.825 1.403 1.5 2.415 1.5 1.013 0 2.714.661 3.782 1.468 2.687 2.032 17.195 2.032 19.882 0 1.068-.807 2.501-1.468 3.186-1.468 2.489 0 10.664-8.61 12.993-13.686 5.434-11.841 2.041-24.706-8.984-34.064-1.458-1.238-2.985-2.265-3.394-2.284-.408-.019-2.542-.903-4.742-1.966-2.316-1.119-6.105-1.932-9-1.932-2.895 0-6.684.813-9 1.932" fill="#ccc" fill-rule="evenodd"/></svg>