<svg xmlns="http://www.w3.org/2000/svg" width="256" height="256"><path fill-opacity=".016" d="M0 128.004v128.004l128.25-.254 128.25-.254.254-127.75L257.008 0H0v128.004m.485.496c0 70.4.119 99.053.265 63.672.146-35.38.146-92.98 0-128C.604 29.153.485 58.1.485 128.5" fill="#fff8e1" fill-rule="evenodd"/><path fill-opacity=".143" d="M184.444 24.886c-5.291 2.403-10.642 8.754-13.395 15.896-4.895 12.705-5.308 18.058-6.103 79.218-.412 31.625-1.196 61.325-1.743 66-2.903 24.824-12.184 35.852-30.275 35.976-8.67.059-18.89-6.251-23.212-14.333-2.159-4.036-2.224-5.119-2.511-41.893L106.91 128h22.045c21.612 0 22.045-.041 22.045-2.066 0-2.352-1.767-6.078-3.4-7.169-.605-.404-9.987-.741-20.85-.75L107 118V79.431l-2.904-1.715c-6.497-3.838-16.169-1.156-19.797 5.49-1.65 3.021-1.823 7.339-2.094 52.139-.163 27.066.137 52.706.672 57.504 1.315 11.776 4.191 18.97 10.223 25.57 6.215 6.801 11.53 9.937 21.452 12.659 10.268 2.817 24.032 2.364 32.941-1.084 6.759-2.616 15.866-10.888 19.252-17.488l2.011-3.921 2.522 4.977c3.473 6.853 11.022 13.644 18.273 16.437 8.804 3.392 21.201 3.852 28.604 1.061 7.51-2.832 13.098-7.41 18.472-15.132 5.702-8.193 8.453-16.939 9.1-28.928.623-11.538-1.021-17-5.117-17-1.371 0-2.737.396-3.036.88-.299.485-.976 5.799-1.503 11.809-1.211 13.794-4.024 22.473-9.581 29.553-10.555 13.448-26.246 12.806-33.54-1.371-3.261-6.338-3.936-15.331-3.896-51.871l.04-35.5 5.01-3.5c8.797-6.146 18.85-19.143 23.684-30.621 4.898-11.631 6.596-33.401 3.623-46.471-1.851-8.14-6.003-14.263-11.958-17.636-5.259-2.979-18.839-3.188-25.009-.386m11.17 9.388c-1.141.846-2.433 3.928-3.274 7.812-1.561 7.212-4.109 67.486-2.903 68.671 1.31 1.288 10.516-9.713 14.124-16.877 4.41-8.759 6.286-16.689 7.087-29.969.807-13.377-.799-22.955-4.538-27.054-3.11-3.41-7.818-4.569-10.496-2.583M32.951 121.303c-6.013 1.7-10.937 4.833-15.454 9.832-5.849 6.474-7.45 11.02-7.475 21.225-.02 8.063.264 9.398 3.162 14.834 12.141 22.779 45.124 22.207 56.51-.98 3.776-7.69 3.955-19.033.423-26.928-2.74-6.125-10.297-13.593-16.557-16.362-5.712-2.527-14.861-3.247-20.609-1.621" fill="#fff8e1" fill-rule="evenodd"/><path fill-opacity=".209" d="M184.158 25.572C175.192 30.101 170.726 38.258 167.5 56c-1.436 7.893-1.871 19.647-2.573 69.5-.806 57.231-1.18 64.298-3.94 74.549-3.654 13.569-12.002 20.903-24.776 21.765-12.25.826-21.884-4.374-26.854-14.496L106.5 201.5v-74l22.264-.269 22.264-.269-.619-2.731c-1.337-5.889-2.684-6.231-24.52-6.231H106V78.898l-3.714-1.552c-7.034-2.939-14.219-.184-17.881 6.854C83.25 86.421 83 96.389 83 140.314c0 31.557.411 55.617 1.005 58.8 2.351 12.596 10.265 23.06 21.371 28.258 6.479 3.033 17.936 5.628 24.843 5.628 10.122 0 23.964-5.241 29.461-11.155 1.198-1.29 3.74-4.943 5.649-8.119l3.469-5.774 2.106 4.35c4.833 9.983 12.681 15.994 25.096 19.219 18.063 4.693 35.108-3.776 43.986-21.856 5.399-10.995 7.621-27.883 4.616-35.075-1.648-3.944-2.952-4.931-5.461-4.135-1.56.495-1.938 2.07-2.476 10.315-.69 10.58-2.709 19.436-5.821 25.536-2.682 5.257-9.176 12.149-13.285 14.099-6.669 3.165-16.961 1.233-21.771-4.085-.941-1.041-2.741-4.127-4-6.857-2.247-4.875-2.293-5.686-2.589-45.63l-.302-40.666 4.302-2.965c8.764-6.041 19.262-19.114 23.743-29.566 3.487-8.137 5.423-19.563 5.443-32.136.022-13.672-1.604-20.742-6.243-27.145-4.046-5.585-8.939-7.721-18.642-8.138-7.092-.304-8.606-.037-13.342 2.355m10.438 9.321c-3.018 3.336-4.585 17.89-5.231 48.607l-.61 29 5.693-5.5C205.332 96.485 211 80.043 211 58.985c0-13.177-1.27-18.992-5.027-23.014-3.335-3.57-8.664-4.075-11.377-1.078m-163.238 87.14c-8.306 2.559-18.022 12.496-20.324 20.785-1.52 5.472-1.249 15.195.572 20.539 2.206 6.475 10.015 14.789 16.624 17.702 3.971 1.749 7.119 2.324 12.77 2.332 9.306.013 15.51-2.53 22.195-9.096 15.022-14.755 11.347-39.607-7.364-49.79-4.385-2.387-6.697-2.936-13.319-3.164-4.406-.152-9.426.159-11.154.692" fill="#fff8e1" fill-rule="evenodd"/><path fill-opacity=".3" d="M189.5 23.935c-12.848 3.128-19.366 14.194-22.477 38.161-.529 4.072-.975 29.424-.992 56.336-.029 45.396-.464 55.859-3.066 73.796-2.37 16.332-9.224 25.897-20.902 29.174-11.235 3.153-21.713.21-29.088-8.168-6.672-7.579-6.975-9.771-6.975-50.416V127h44l-.015-2.25c-.035-5.105-.472-5.215-22.697-5.75l-20.788-.5-.272-19.241c-.27-19.138-.284-19.25-2.701-20.833-3.424-2.244-11.188-2.065-14.427.331-5.636 4.169-5.575 3.579-5.894 57.092-.331 55.372.226 64.233 4.616 73.524 8.009 16.949 29.435 26.005 51.816 21.9 11.555-2.119 21.194-9.144 26.311-19.174 1.151-2.254 2.442-4.099 2.87-4.099.429 0 1.339 1.548 2.023 3.44.684 1.891 3.314 5.741 5.843 8.555 11.05 12.29 31.047 15.876 45.906 8.231 15.092-7.764 26.625-34.634 22.203-51.726-1.108-4.28-1.678-5.044-3.965-5.309-2.568-.297-2.693-.085-3.253 5.5-2.06 20.522-4.332 28.291-10.592 36.21-5.141 6.503-13.269 10.629-19.105 9.696-5.506-.881-8.975-2.803-12.688-7.032-5.852-6.665-6.196-9.66-6.144-53.497l.047-39.568 5.053-3.5c2.78-1.925 7.371-6.272 10.204-9.659 12.454-14.897 16.601-26.222 17.392-47.499.451-12.15.262-14.467-1.716-20.981-2.93-9.645-8.067-15.076-15.826-16.731-5.845-1.246-10.147-1.303-14.701-.195m6.541 9.314c-1.61.831-2.913 2.818-3.776 5.76-2.105 7.177-3.375 28.769-3.058 51.991l.293 21.5 5.542-5.621c11.348-11.51 16.256-25.557 16.38-46.879.062-10.676-.293-14.462-1.697-18.099-2.981-7.723-8.599-11.275-13.684-8.652M32.5 122.338c-9.364 3.103-15.898 8.885-19.82 17.54-3.287 7.25-3.014 18.902.615 26.304 3.02 6.16 7.362 10.525 13.983 14.059 3.527 1.883 5.785 2.254 13.722 2.256 8.65.003 9.976-.261 14.819-2.943 10.125-5.609 15.262-13.865 15.967-25.661.399-6.683.127-8.337-2.243-13.618-5.016-11.176-15.018-18.182-26.982-18.899-3.386-.203-7.826.222-10.061.962" fill="#fff8e1" fill-rule="evenodd"/></svg>