<?xml version="1.0" encoding="UTF-8"?>
<svg width="17.468mm" height="13.699mm" version="1.1" viewBox="0 0 17.468 13.699" xmlns="http://www.w3.org/2000/svg" xmlns:cc="http://creativecommons.org/ns#" xmlns:dc="http://purl.org/dc/elements/1.1/" xmlns:rdf="http://www.w3.org/1999/02/22-rdf-syntax-ns#">
 <metadata>
  <rdf:RDF>
   <cc:Work rdf:about="">
    <dc:format>image/svg+xml</dc:format>
    <dc:type rdf:resource="http://purl.org/dc/dcmitype/StillImage"/>
    <dc:title/>
   </cc:Work>
  </rdf:RDF>
 </metadata>
 <g fill="#ffb300" stroke-width=".26458" aria-label="• tl">
  <path d="m0.59267 9.9229q-0.59267-0.6096-0.59267-1.4563t0.59267-1.4563q0.6096-0.6096 1.4563-0.6096t1.4563 0.6096 0.6096 1.4563-0.6096 1.4563q-0.6096 0.59267-1.4563 0.59267t-1.4563-0.59267z"/>
  <path d="m6.827 4.5212q0-0.508 0.254-0.762 0.254-0.27093 0.64347-0.27093t0.62653 0.23707v2.5061h2.3199q0.3556 0 0.4572 0.13547 0.11853 0.13547 0.11853 0.4572h-2.8956v4.2672q0 0.93133 0.52493 1.4393 0.54187 0.508 1.2361 0.508 1.0499 0 1.5409-0.77893 0.49106-0.77893 0.49106-2.5231 0.03387-0.1016 0.254-0.1016 0.3048 0 0.3048 0.89746 0 1.3716-0.69426 2.2691-0.67733 0.89746-2.0997 0.89746t-2.2521-0.74506-0.82973-2.2183z"/>
  <path d="m17.163 9.635q0.3048 0 0.3048 0.89746 0 1.3039-0.7112 2.2352-0.7112 0.93133-1.8119 0.93133-1.3716 0-2.0489-0.8128-0.67733-0.8128-0.67733-2.3029v-6.3669q0-2.1844 0.4572-3.2004 0.4572-1.016 1.6087-1.016 1.6764 0 1.6764 2.2691 0 1.7103-0.67733 2.7432-0.6604 1.0329-1.524 1.5409v4.5381q0 0.9652 0.37253 1.4563 0.37253 0.49106 1.016 0.49106 0.64346 0 1.2023-0.77893 0.5588-0.77893 0.5588-2.5231 0.03387-0.1016 0.254-0.1016zm-1.9304-7.3491q0-1.6256-0.8128-1.6256-0.2032 0-0.32173 0.13547-0.1016 0.13547-0.18627 0.67733-0.1524 0.82973-0.1524 4.3688 1.4732-1.0668 1.4732-3.556z"/>
 </g>
</svg>
