<?xml version="1.0" encoding="UTF-8"?>
<svg width="56.855mm" height="20.066mm" version="1.1" viewBox="0 0 56.855 20.066" xmlns="http://www.w3.org/2000/svg" xmlns:cc="http://creativecommons.org/ns#" xmlns:dc="http://purl.org/dc/elements/1.1/" xmlns:rdf="http://www.w3.org/1999/02/22-rdf-syntax-ns#">
 <metadata>
  <rdf:RDF>
   <cc:Work rdf:about="">
    <dc:format>image/svg+xml</dc:format>
    <dc:type rdf:resource="http://purl.org/dc/dcmitype/StillImage"/>
    <dc:title/>
   </cc:Work>
  </rdf:RDF>
 </metadata>
 <g transform="translate(-.8128)">
  <g fill="#ffffff" stroke-width=".26458" aria-label="• tinylist">
   <path d="m1.4055 9.9229q-0.59267-0.6096-0.59267-1.4563t0.59267-1.4563q0.6096-0.6096 1.4563-0.6096t1.4563 0.6096 0.6096 1.4563-0.6096 1.4563q-0.6096 0.59267-1.4563 0.59267t-1.4563-0.59267z"/>
   <path d="m7.7721 4.5212q0-0.508 0.254-0.762 0.254-0.27093 0.64347-0.27093t0.62653 0.23707v2.5061h2.3199q0.3556 0 0.4572 0.13547 0.11853 0.13547 0.11853 0.4572h-2.8956v4.2672q0 0.93133 0.52493 1.4393 0.54187 0.508 1.2361 0.508 1.0499 0 1.5409-0.77893 0.49107-0.77893 0.49107-2.5231 0.03387-0.1016 0.254-0.1016 0.3048 0 0.3048 0.89746 0 1.3716-0.69426 2.2691-0.67733 0.89746-2.0997 0.89746-1.4224 0-2.2521-0.74506t-0.82973-2.2183z"/>
   <path d="m13.248 4.3349q-0.28787-0.28787-0.28787-0.7112t0.28787-0.7112q0.28787-0.3048 0.7112-0.3048 0.42333 0 0.7112 0.3048 0.3048 0.28787 0.3048 0.7112t-0.3048 0.7112q-0.28787 0.28787-0.7112 0.28787-0.42333 0-0.7112-0.28787zm-0.06773 2.6924q0-0.508 0.254-0.762 0.254-0.27093 0.64346-0.27093t0.62653 0.23707v4.8599q0 0.9652 0.37253 1.4563 0.37253 0.49106 1.016 0.49106 0.64346 0 1.2023-0.77893 0.5588-0.77893 0.5588-2.5231 0.03387-0.1016 0.254-0.1016 0.3048 0 0.3048 0.89746 0 1.3039-0.7112 2.2352-0.7112 0.93133-1.8119 0.93133-1.3716 0-2.0489-0.8128-0.6604-0.8128-0.6604-2.3029z"/>
   <path d="m27.053 9.635q0.3048 0 0.3048 0.89746 0 1.4393-0.62653 2.3029-0.6096 0.8636-1.7949 0.8636t-1.8288-0.8128q-0.62653-0.8128-0.62653-2.3029v-1.9812q0-2.0151-1.016-2.0151-0.89746 0-1.4732 0.9144t-0.57573 3.0649v2.8956q-0.16933 0.23707-0.59267 0.23707-0.42333 0-0.67733-0.254-0.254-0.27093-0.254-0.77893v-6.4347q0.16933-0.23707 0.64346-0.23707 0.88053 0 0.88053 1.27 0.7112-1.27 2.2521-1.27 1.1007 0 1.7441 0.69427 0.6604 0.69427 0.6604 1.9981v2.4045q0 0.9652 0.3048 1.4563 0.3048 0.49106 0.89746 0.49106 0.6096 0 1.0668-0.74506 0.4572-0.762 0.4572-2.5569 0.01693-0.1016 0.254-0.1016z"/>
   <path d="m26.822 7.0273q0-0.508 0.254-0.762 0.254-0.27093 0.64347-0.27093t0.62653 0.23707v4.8599q0 2.0151 1.016 2.0151 0.9144 0 1.4901-0.9652 0.59267-0.9652 0.59267-3.2512v-1.8627q0-0.508 0.254-0.762 0.254-0.27093 0.64347-0.27093t0.62653 0.23707v8.6021q0.2032-0.01693 0.64346-0.01693t0.44027 0.37253l-0.1016 0.254q-0.64346 0-0.98213 0.01693v0.84666q0 1.7441-0.79586 2.7432-0.77893 1.016-2.0997 1.016-0.77893 0-1.3885-0.47413-0.59267-0.4572-0.59267-1.4563 0-1.2869 0.9144-2.0489 0.9144-0.762 2.4384-1.0668v-2.6416q-0.7112 1.3208-2.286 1.3208-1.0837 0-1.7103-0.69426-0.62653-0.69427-0.62653-1.9981zm2.1336 11.159q0 0.59267 0.32173 0.89746 0.32173 0.32173 0.77893 0.32173t0.74506-0.27093q0.64347-0.57573 0.64347-3.4713-2.4892 0.5588-2.4892 2.5231z"/>
   <path d="m40.036 9.635q0.3048 0 0.3048 0.89746 0 1.3039-0.7112 2.2352-0.7112 0.93133-1.8119 0.93133-1.3716 0-2.0489-0.8128-0.67733-0.8128-0.67733-2.3029v-6.3669q0-2.1844 0.4572-3.2004 0.4572-1.016 1.6087-1.016 1.6764 0 1.6764 2.2691 0 1.7103-0.67733 2.7432-0.6604 1.0329-1.524 1.5409v4.5381q0 0.9652 0.37253 1.4563 0.37253 0.49106 1.016 0.49106 0.64347 0 1.2023-0.77893 0.5588-0.77893 0.5588-2.5231 0.03387-0.1016 0.254-0.1016zm-1.9304-7.3491q0-1.6256-0.8128-1.6256-0.2032 0-0.32173 0.13547-0.1016 0.13547-0.18627 0.67733-0.1524 0.82973-0.1524 4.3688 1.4732-1.0668 1.4732-3.556z"/>
   <path d="m39.905 4.3349q-0.28787-0.28787-0.28787-0.7112t0.28787-0.7112q0.28787-0.3048 0.7112-0.3048 0.42333 0 0.7112 0.3048 0.3048 0.28787 0.3048 0.7112t-0.3048 0.7112q-0.28787 0.28787-0.7112 0.28787-0.42333 0-0.7112-0.28787zm-0.06773 2.6924q0-0.508 0.254-0.762 0.254-0.27093 0.64346-0.27093t0.62653 0.23707v4.8599q0 0.9652 0.37253 1.4563 0.37253 0.49106 1.016 0.49106t1.2023-0.77893q0.5588-0.77893 0.5588-2.5231 0.03387-0.1016 0.254-0.1016 0.3048 0 0.3048 0.89746 0 1.3039-0.7112 2.2352-0.7112 0.93133-1.8119 0.93133-1.3716 0-2.0489-0.8128-0.6604-0.8128-0.6604-2.3029z"/>
   <path d="m47.682 10.245q-0.67733-0.23707-1.3547-0.49107-0.6604-0.27093-1.1176-0.762t-0.4572-1.2531q0-0.77893 0.7112-1.2531 0.7112-0.49107 2.0659-0.49107 1.3716 0 2.1336 0.47413 0.77893 0.47413 0.77893 1.1007 0 0.3048-0.23707 0.49107-0.22013 0.18627-0.44027 0.18627-0.42333 0-0.5588-0.2032 0.1016-0.11853 0.1016-0.4572 0-0.3556-0.52493-0.64347-0.52493-0.28787-1.1684-0.28787t-1.0668 0.23707q-0.42333 0.23707-0.42333 0.72813 0 0.47413 0.47413 0.82973 0.49107 0.3556 1.1684 0.59267 0.69426 0.23707 1.3716 0.508 0.69426 0.27093 1.1684 0.77893 0.49106 0.49107 0.49106 1.2192 0 1.0837-0.94826 1.6256-0.93133 0.52493-2.4723 0.52493-1.524 0-2.4892-0.88053-0.94826-0.89746-0.94826-2.2183 0-0.47413 0.18627-0.74507 0.18627-0.27093 0.42333-0.27093 0.44026 0 0.508 0.1524l0.03387 0.0508q-0.1016 0.254-0.1016 0.62653 0 1.1345 0.6604 1.8796t1.8288 0.74506q1.7949 0 1.8119-1.27 0-0.9652-1.6087-1.524z"/>
   <path d="m51.792 4.5212q0-0.508 0.254-0.762 0.254-0.27093 0.64347-0.27093t0.62653 0.23707v2.5061h2.3199q0.3556 0 0.4572 0.13547 0.11853 0.13547 0.11853 0.4572h-2.8956v4.2672q0 0.93133 0.52493 1.4393 0.54187 0.508 1.2361 0.508 1.0499 0 1.5409-0.77893 0.49107-0.77893 0.49107-2.5231 0.03387-0.1016 0.254-0.1016 0.3048 0 0.3048 0.89746 0 1.3716-0.69426 2.2691-0.67733 0.89746-2.0997 0.89746-1.4224 0-2.2521-0.74506-0.82973-0.74506-0.82973-2.2183z"/>
  </g>
 </g>
</svg>
